<svg width="16" height="16" viewBox="0 0 16 16" fill="none" xmlns="http://www.w3.org/2000/svg">
<rect width="16" height="16" rx="8" fill="white"/>
<g clip-path="url(#clip0_649_35)">
<path d="M5.22135 11.3561C4.74087 11.3561 4.31027 11.2781 3.92953 11.1221C3.54879 10.9661 3.24297 10.7352 3.01205 10.4292C2.78732 10.1234 2.66872 9.7552 2.65625 9.32459H4.36014C4.38507 9.56808 4.46931 9.75536 4.61284 9.88643C4.75638 10.0111 4.9436 10.0735 5.17452 10.0736C5.41172 10.0736 5.599 10.0205 5.73635 9.9144C5.8736 9.80208 5.94222 9.64917 5.94222 9.45566C5.94222 9.29304 5.88607 9.15888 5.77375 9.05318C5.65777 8.94057 5.52103 8.85154 5.37112 8.79105C5.21511 8.72242 4.99043 8.64442 4.69708 8.55704C4.27287 8.42598 3.92649 8.29491 3.65796 8.16384C3.38943 8.03277 3.15852 7.83931 2.96522 7.58346C2.77171 7.32762 2.67495 6.99371 2.67495 6.58175C2.67495 5.97032 2.89654 5.49283 3.33972 5.14927C3.78291 4.79987 4.36019 4.62511 5.07158 4.625C5.79554 4.625 6.37912 4.79976 6.8223 5.14927C7.26537 5.49283 7.50252 5.97357 7.53374 6.59151H5.80254C5.78996 6.37935 5.71191 6.21397 5.56837 6.09537C5.42494 5.97048 5.24065 5.90804 5.01548 5.90804C4.82196 5.90804 4.66591 5.9611 4.54731 6.06724C4.42871 6.16708 4.36941 6.31376 4.36941 6.50728C4.36941 6.71954 4.46931 6.88492 4.66911 7.00342C4.86891 7.12191 5.18097 7.24983 5.60528 7.38719C6.02949 7.53072 6.37272 7.66808 6.63497 7.79926C6.90708 7.93319 7.14426 8.12867 7.32771 8.3702C7.52122 8.61954 7.61798 8.94098 7.61798 9.33451C7.61798 9.70907 7.52122 10.0492 7.32771 10.3549C7.14048 10.6609 6.86588 10.9042 6.5039 11.0851C6.14192 11.2659 5.7144 11.3563 5.22135 11.3561Z" fill="#1359C8"/>
<path fill-rule="evenodd" clip-rule="evenodd" d="M11.3116 8.09185L10.4144 9.46986L11.5555 11.1855H13.3735L11.3116 8.09185ZM8.93233 11.1846H7.32585L9.38131 7.92338L7.28015 4.77173H9.09819L10.3863 6.70848L11.5189 4.77173H13.1093L8.93233 11.1846Z" fill="#FFAA01"/>
</g>
<defs>
<clipPath id="clip0_649_35">
<rect width="10.7172" height="6.73115" fill="white" transform="translate(2.65625 4.625)"/>
</clipPath>
</defs>
</svg>
